<svg width="241" height="60" viewBox="0 0 241 60" fill="none" xmlns="http://www.w3.org/2000/svg">
<path d="M27.7954 52.7912C22.9065 57.1544 17.0715 59.3361 10.2902 59.3361C6.18988 59.3361 3.25921 58.4686 1.49819 56.734C0.499396 55.7877 0 54.1187 0 51.7267C0 48.047 2.79924 45.6685 8.39773 44.5908C10.1588 44.249 12.2746 44.0781 14.7453 44.0781C17.216 44.0781 20.5935 44.5381 24.8778 45.458C27.1646 42.9087 29.8848 39.1632 33.039 34.2216C36.2192 29.254 38.7296 25.4297 40.5692 22.7488C42.4091 20.0678 44.4988 17.3343 46.8379 14.5482C49.1774 11.7358 51.6218 9.1994 54.1714 6.93896C59.3493 2.31298 64.4747 0 69.5473 0C71.8079 0 73.4376 0.578245 74.4364 1.73474C75.4349 2.86495 75.9344 4.21857 75.9344 5.79562C75.9344 7.34637 75.2115 9.15997 73.7659 11.2364C72.3467 13.3128 70.6909 15.1527 68.7983 16.756C66.9323 18.3594 65.0792 19.7261 63.2393 20.8563C61.4258 21.9603 59.9931 22.5122 58.9418 22.5122C57.8905 22.5122 56.9837 22.0654 56.2215 21.1717C55.4593 20.2781 55.0782 19.4238 55.0782 18.609C55.0782 17.768 55.1831 17.1897 55.3936 16.8743C55.6299 16.5326 55.8665 16.3618 56.1031 16.3618C56.3397 16.3618 56.4842 16.5063 56.537 16.7954C57.378 16.5326 58.7184 15.7178 60.5583 14.351C62.4246 12.958 64.1197 11.5124 65.6444 10.0142C67.1688 8.516 67.9311 7.58292 67.9311 7.21494C67.9311 6.8207 67.6945 6.62355 67.2213 6.62355C66.7745 6.62355 66.1568 6.78127 65.3682 7.09668C64.5796 7.41207 63.5283 8.06917 62.2141 9.06797C60.9001 10.0405 59.4806 11.3021 57.9562 12.8529C54.2764 16.5326 50.1762 21.75 45.6553 28.5049C44.604 30.0294 43.1188 32.2504 41.2001 35.168C37.2837 41.082 34.4846 45.1297 32.8024 47.3111C46.2862 50.8596 55.9193 52.6338 61.7016 52.6338C64.3826 52.6338 66.2618 52.292 67.3395 51.6086C67.7338 51.372 67.9967 51.2539 68.1281 51.2539C68.2594 51.2539 68.3251 51.3588 68.3251 51.569C68.3251 51.7795 68.2069 52.0949 67.9704 52.5154C67.7338 52.936 67.1425 53.8296 66.1961 55.1963C65.2762 56.5631 64.5928 57.3778 64.146 57.6407C62.8582 58.403 60.6635 58.7841 57.5619 58.7841C54.4866 58.7841 51.5429 58.5607 48.7306 58.1139C45.9444 57.6671 43.6972 57.2332 41.9887 56.8128C40.2801 56.366 37.7437 55.6563 34.3793 54.6839C31.0414 53.7112 28.8467 53.0806 27.7954 52.7912ZM13.4048 50.3864C9.96164 50.3864 8.24004 50.7939 8.24004 51.6086C8.24004 51.924 8.52916 52.1999 9.10739 52.4365C9.71193 52.6731 10.4216 52.7912 11.2364 52.7912C13.7859 52.7912 16.2435 52.1211 18.6091 50.7807C16.5852 50.5177 14.8504 50.3864 13.4048 50.3864ZM109.552 27.7559C111.55 27.7559 112.549 28.4393 112.549 29.806C112.549 30.5419 112.378 31.0807 112.036 31.4225C111.694 31.7641 110.958 32.9074 109.828 34.8525C108.724 36.7713 107.489 39.2421 106.122 42.2646C104.782 45.261 103.914 47.8236 103.52 49.9528C103.441 50.2155 103.402 50.5834 103.402 51.0566C103.402 52.5022 103.796 53.2251 104.584 53.2251C105.373 53.2251 106.306 52.8572 107.384 52.1211C108.462 51.3588 109.421 50.5573 110.262 49.7162C111.103 48.8488 111.918 47.9684 112.706 47.0745C113.521 46.181 114.007 45.6685 114.165 45.5369C114.323 45.4055 114.559 45.3399 114.875 45.3399C115.374 45.3399 115.676 45.721 115.782 46.4832C115.887 47.2454 115.939 48.034 115.939 48.8488C115.939 49.6635 115.86 50.2287 115.703 50.5441C114.94 52.0422 113.258 53.8428 110.656 55.9454C108.08 58.0482 105.728 59.0995 103.599 59.0995C101.496 59.0995 99.9454 58.4554 98.9466 57.1676C97.9478 55.8797 97.4485 54.4605 97.4485 52.9097C97.4485 51.3327 97.7112 49.9528 98.2369 48.7699C96.0554 51.6086 93.5453 54.0134 90.7066 55.9849C87.894 57.9562 85.5944 58.9418 83.807 58.9418C82.0196 58.9418 80.5608 58.403 79.4307 57.3253C77.9851 55.9849 77.2624 54.1319 77.2624 51.7663C77.2624 49.3744 77.7881 46.9825 78.8394 44.5908C79.917 42.1725 81.3231 39.9779 83.058 38.0067C84.7926 36.0091 86.6982 34.1955 88.7747 32.5658C93.1378 29.149 97.1592 27.4405 100.839 27.4405C102.258 27.4405 103.415 27.677 104.309 28.1502C105.202 28.6234 105.767 29.2147 106.004 29.9244C106.635 28.9781 107.16 28.3868 107.581 28.1502C108.028 27.8872 108.685 27.7559 109.552 27.7559ZM104.309 32.1322C99.8141 32.1322 95.1616 34.6291 90.3516 39.6232C88.6433 41.4103 87.0661 43.5525 85.6205 46.0496C84.2013 48.5465 83.4916 50.255 83.4916 51.175C83.4916 52.0949 83.7545 52.5549 84.2802 52.5549C85.016 52.5549 87.0661 51.1091 90.4305 48.2179C93.7948 45.3003 96.029 43.1582 97.1331 41.7914C98.3421 40.267 100.734 37.0472 104.309 32.1322ZM129.607 49.8344L129.568 50.4653C129.568 51.1222 129.818 51.6875 130.317 52.1606C130.816 52.6338 131.276 52.8701 131.697 52.8701C134.851 52.8701 137.637 52.3972 140.055 51.4509C142.5 50.5045 143.722 49.5585 143.722 48.6122C143.722 48.1654 143.275 47.7843 142.381 47.4688C141.514 47.1273 140.029 46.7198 137.926 46.2466C135.85 45.7474 134.338 45.3662 133.392 45.1033C132.446 44.8142 131.697 44.5513 131.145 44.3147C130.593 44.0781 130.028 43.7497 129.45 43.3291C128.214 42.4619 127.597 41.1737 127.597 39.4655C127.597 37.7305 128.227 36.0222 129.489 34.3401C130.777 32.6315 132.38 31.1727 134.299 29.9637C136.218 28.7547 138.281 27.6902 140.489 26.7703C144.852 24.9566 148.519 24.0498 151.489 24.0498C154.406 24.0498 156.207 24.6806 156.89 25.9423C157.1 26.3891 157.206 26.8884 157.206 27.4405V27.7163C157.206 29.1094 156.903 30.2003 156.299 30.9889C155.72 31.7772 154.788 32.487 153.499 33.1179C152.238 33.7487 151.226 34.0639 150.464 34.0639C149.728 34.0639 149.255 34.0114 149.044 33.9062C148.86 33.8012 148.703 33.6699 148.571 33.5122C148.44 33.3281 148.269 33.1967 148.059 33.1179C147.875 33.039 147.783 32.8417 147.783 32.5263C147.783 32.2111 147.914 31.8957 148.177 31.5802C148.44 31.2384 148.624 30.8837 148.729 30.5157C146.994 30.5946 145.181 31.0018 143.288 31.7379C141.396 32.4477 139.766 33.2492 138.399 34.1428C137.059 35.0366 135.942 35.8906 135.048 36.7056C134.154 37.5203 133.708 38.1248 133.708 38.5191C133.708 38.8871 134.312 39.1893 135.521 39.4259C140.962 40.5036 144.537 41.4367 146.245 42.2253C147.954 43.0136 149.136 43.9075 149.794 44.9063C150.451 45.9051 150.779 46.8118 150.779 47.6266C150.779 49.3087 150.109 50.8989 148.768 52.3972C147.428 53.8953 145.772 55.1175 143.801 56.0638C139.569 58.14 135.876 59.1784 132.722 59.1784C129.594 59.1784 127.426 58.692 126.217 57.7196C125.034 56.7733 124.442 55.6431 124.442 54.3289C124.442 53.0149 124.771 51.8056 125.428 50.7018C126.112 49.5717 126.979 49.0065 128.03 49.0065C129.082 49.0065 129.607 49.2824 129.607 49.8344ZM172.254 49.8344L172.214 50.4653C172.214 51.1222 172.464 51.6875 172.963 52.1606C173.463 52.6338 173.923 52.8701 174.343 52.8701C177.497 52.8701 180.283 52.3972 182.701 51.4509C185.146 50.5045 186.368 49.5585 186.368 48.6122C186.368 48.1654 185.921 47.7843 185.028 47.4688C184.16 47.1273 182.675 46.7198 180.572 46.2466C178.496 45.7474 176.985 45.3662 176.039 45.1033C175.092 44.8142 174.343 44.5513 173.791 44.3147C173.239 44.0781 172.674 43.7497 172.096 43.3291C170.861 42.4619 170.243 41.1737 170.243 39.4655C170.243 37.7305 170.874 36.0222 172.135 34.3401C173.423 32.6315 175.027 31.1727 176.945 29.9637C178.864 28.7547 180.927 27.6902 183.135 26.7703C187.498 24.9566 191.165 24.0498 194.135 24.0498C197.053 24.0498 198.853 24.6806 199.536 25.9423C199.747 26.3891 199.852 26.8884 199.852 27.4405V27.7163C199.852 29.1094 199.55 30.2003 198.945 30.9889C198.367 31.7772 197.434 32.487 196.146 33.1179C194.884 33.7487 193.872 34.0639 193.11 34.0639C192.374 34.0639 191.901 34.0114 191.691 33.9062C191.507 33.8012 191.349 33.6699 191.218 33.5122C191.086 33.3281 190.915 33.1967 190.705 33.1179C190.521 33.039 190.429 32.8417 190.429 32.5263C190.429 32.2111 190.561 31.8957 190.823 31.5802C191.086 31.2384 191.27 30.8837 191.375 30.5157C189.641 30.5946 187.827 31.0018 185.934 31.7379C184.042 32.4477 182.412 33.2492 181.046 34.1428C179.705 35.0366 178.588 35.8906 177.694 36.7056C176.801 37.5203 176.354 38.1248 176.354 38.5191C176.354 38.8871 176.959 39.1893 178.168 39.4259C183.608 40.5036 187.183 41.4367 188.892 42.2253C190.6 43.0136 191.783 43.9075 192.44 44.9063C193.097 45.9051 193.425 46.8118 193.425 47.6266C193.425 49.3087 192.755 50.8989 191.415 52.3972C190.074 53.8953 188.418 55.1175 186.447 56.0638C182.215 58.14 178.522 59.1784 175.368 59.1784C172.24 59.1784 170.072 58.692 168.863 57.7196C167.68 56.7733 167.089 55.6431 167.089 54.3289C167.089 53.0149 167.417 51.8056 168.075 50.7018C168.758 49.5717 169.625 49.0065 170.677 49.0065C171.728 49.0065 172.254 49.2824 172.254 49.8344ZM237.333 27.677C238.122 27.677 238.923 28.0318 239.738 28.7415C240.579 29.4513 241 30.5419 241 32.0138C241 33.4594 240.487 35.3521 239.462 37.6912C238.437 40.0043 237.031 42.3698 235.244 44.7878C233.457 47.1798 231.485 49.4401 229.33 51.569C227.201 53.6719 224.888 55.4065 222.391 56.7733C219.92 58.1139 217.673 58.7841 215.649 58.7841C213.625 58.7841 211.995 58.1532 210.76 56.8917C209.551 55.6038 208.947 53.8296 208.947 51.569C208.947 49.2823 209.499 46.7591 210.603 43.9992C211.733 41.2397 213.178 38.8082 214.939 36.7056C216.7 34.5766 218.606 32.6711 220.656 30.9889C224.94 27.5457 228.699 25.824 231.932 25.824C233.378 25.824 234.468 26.1788 235.204 26.8884C235.467 27.125 235.599 27.3352 235.599 27.5193V27.7559C235.967 27.7034 236.545 27.677 237.333 27.677ZM233.351 32.9206H233.075C232.155 32.9206 231.695 32.2504 231.695 30.91C229.777 31.5407 227.766 32.6447 225.663 34.2216C223.561 35.7988 221.681 37.6649 220.025 39.8202C216.661 44.1309 214.953 47.7711 214.9 50.7411C214.9 52.2131 215.439 52.9489 216.516 52.9489C217.594 52.9489 219.197 52.2395 221.326 50.82C223.455 49.4008 225.558 47.3768 227.635 44.7486C229.737 42.1201 231.301 39.8466 232.326 37.9278C233.378 35.9827 233.903 34.6684 233.903 33.9851C233.903 33.2756 233.719 32.9206 233.351 32.9206Z" fill="#036C3E"/>
</svg>
