<svg width="172" height="42" viewBox="0 0 172 42" fill="none" xmlns="http://www.w3.org/2000/svg">
<path d="M19.9849 37.154L20.0357 36.9723C19.9728 36.9554 19.9057 36.9708 19.8572 37.0134L19.9849 37.154ZM1.25852 39.9148L1.39303 39.7804C1.39214 39.7797 1.39124 39.7787 1.39034 39.778L1.25852 39.9148ZM6.17171 31.4119L6.20793 31.597L6.20822 31.5968L6.17171 31.4119ZM17.9072 32.0191L17.867 32.2035C17.9342 32.2176 18.004 32.1954 18.0499 32.145L17.9072 32.0191ZM23.7188 24.1512L23.5574 24.0496L23.5572 24.0498L23.7188 24.1512ZM33.5451 10.3754L33.6919 10.4966L33.6925 10.4959L33.5451 10.3754ZM38.7673 5.04727L38.8943 5.1883L38.8949 5.18783L38.7673 5.04727ZM53.198 1.40317L53.0529 1.52636L53.0543 1.52797L53.198 1.40317ZM52.7206 8.05642L52.5634 7.94874L52.5625 7.95008L52.7206 8.05642ZM49.1831 11.9214L49.0593 11.7776L49.0583 11.7784L49.1831 11.9214ZM45.2245 14.7925L45.3242 14.9535L45.3248 14.9531L45.2245 14.7925ZM39.6376 12.0042L39.4799 11.8969C39.4793 11.8978 39.4787 11.8988 39.4781 11.8997L39.6376 12.0042ZM40.4518 11.949L40.2632 11.9827C40.273 12.0359 40.3055 12.0823 40.3525 12.1102C40.3995 12.1382 40.4564 12.145 40.5089 12.1289L40.4518 11.949ZM43.3154 10.2374L43.4296 10.3887L43.43 10.3884L43.3154 10.2374ZM44.4945 6.53805L44.6085 6.68956L44.6104 6.68809L44.4945 6.53805ZM41.4624 9.18832L41.5979 9.32158L41.5991 9.32043L41.4624 9.18832ZM32.7029 20.1482L32.8607 20.2553L32.8622 20.253L32.7029 20.1482ZM29.5304 24.8138L29.6902 24.9179L29.6906 24.9173L29.5304 24.8138ZM23.5503 33.3167L23.3985 33.2016C23.3593 33.2517 23.3481 33.3177 23.3688 33.3776C23.3897 33.4373 23.4394 33.4829 23.5017 33.499L23.5503 33.3167ZM48.1443 36.3259L48.0458 36.1642C48.0444 36.1651 48.0431 36.1659 48.0417 36.1667L48.1443 36.3259ZM47.3301 38.8381L47.1726 38.7309L47.1712 38.733L47.3301 38.8381ZM45.8702 40.5497L45.7731 40.3873L45.7727 40.3875L45.8702 40.5497ZM34.8928 40.8811L34.8624 41.0671H34.8627L34.8928 40.8811ZM30.0919 39.97L30.0434 40.1523C30.0444 40.1527 30.0452 40.1528 30.0461 40.153L30.0919 39.97ZM24.6733 38.4793L24.6198 38.6602H24.6202L24.6733 38.4793ZM6.67706 36.9056L6.6045 37.0801C6.6054 37.0805 6.60632 37.0807 6.60722 37.0811L6.67706 36.9056ZM13.4432 35.7462L13.5377 35.9102C13.6095 35.8702 13.6472 35.7895 13.6313 35.71C13.6155 35.6305 13.5497 35.5696 13.4679 35.5592L13.4432 35.7462ZM19.9849 37.154L19.8572 37.0134C16.4123 40.0367 12.303 41.5484 7.51933 41.5484V41.7369V41.9253C12.3936 41.9253 16.5946 40.3818 20.1123 37.2948L19.9849 37.154ZM7.51933 41.7369V41.5484C4.61847 41.5484 2.59378 40.9436 1.39303 39.7804L1.25852 39.9148L1.12402 40.049C2.43133 41.3153 4.5805 41.9253 7.51933 41.9253V41.7369ZM1.25852 39.9148L1.39034 39.778C0.737442 39.1698 0.383322 38.0675 0.383322 36.4086H0.191661H0C0 38.0995 0.357122 39.3347 1.12671 40.0516L1.25852 39.9148ZM0.191661 36.4086H0.383322C0.383322 35.1755 0.857046 34.1676 1.81078 33.3706C2.77208 32.5674 4.2307 31.9711 6.20793 31.597L6.17171 31.4119L6.13548 31.2269C4.12601 31.6072 2.5946 32.221 1.56256 33.0834C0.522951 33.952 0 35.0653 0 36.4086H0.191661ZM6.17171 31.4119L6.20822 31.5968C7.44668 31.3607 8.94048 31.2414 10.6918 31.2414V31.0529V30.8644C8.92442 30.8644 7.4048 30.9847 6.1352 31.2269L6.17171 31.4119ZM10.6918 31.0529V31.2414C12.4312 31.2414 14.8209 31.5602 17.867 32.2035L17.9072 32.0191L17.9474 31.835C14.8918 31.1897 12.4713 30.8644 10.6918 30.8644V31.0529ZM17.9072 32.0191L18.0499 32.145C19.6884 30.3486 21.632 27.7162 23.8804 24.2526L23.7188 24.1512L23.5572 24.0498C21.3135 27.5064 19.3827 30.1193 17.7645 31.8934L17.9072 32.0191ZM23.7188 24.1512L23.8802 24.2528C26.1447 20.7749 27.9308 18.0991 29.2392 16.2243L29.0811 16.1177L28.9232 16.011C27.6113 17.8907 25.8225 20.5706 23.5574 24.0496L23.7188 24.1512ZM29.0811 16.1177L29.2392 16.2243C30.5456 14.3526 32.0296 12.4434 33.6919 10.4966L33.5451 10.3754L33.3985 10.2542C31.7291 12.2092 30.2372 14.1282 28.9232 16.011L29.0811 16.1177ZM33.5451 10.3754L33.6925 10.4959C35.3526 8.53343 37.0866 6.76432 38.8943 5.1883L38.7673 5.04727L38.64 4.90626C36.8167 6.49582 35.0694 8.27881 33.3979 10.2549L33.5451 10.3754ZM38.7673 5.04727L38.8949 5.18783C42.56 1.96801 46.1663 0.376927 49.7165 0.376927V0.188464V0C46.0421 0 42.3488 1.64812 38.6394 4.90674L38.7673 5.04727ZM49.7165 0.188464V0.376927C51.2977 0.376927 52.3926 0.774662 53.0529 1.52636L53.198 1.40317L53.3429 1.27998C52.5807 0.412076 51.3548 0 49.7165 0V0.188464ZM53.198 1.40317L53.0543 1.52797C53.7331 2.28324 54.0731 3.18609 54.0731 4.24668H54.2648H54.4564C54.4564 3.09871 54.0852 2.10589 53.3416 1.27837L53.198 1.40317ZM54.2648 4.24668H54.0731C54.0731 5.27663 53.5832 6.50818 52.5634 7.94874L52.7206 8.05642L52.8779 8.16411C53.9169 6.69672 54.4564 5.38847 54.4564 4.24668H54.2648ZM52.7206 8.05642L52.5625 7.95008C51.5612 9.39031 50.3936 10.666 49.0593 11.7776L49.1831 11.9214L49.3071 12.0652C50.6679 10.9314 51.8587 9.63049 52.8789 8.16277L52.7206 8.05642ZM49.1831 11.9214L49.0583 11.7784C47.736 12.8955 46.4247 13.8464 45.1243 14.6319L45.2245 14.7925L45.3248 14.9531C46.6447 14.1558 47.9726 13.1926 49.308 12.0643L49.1831 11.9214ZM45.2245 14.7925L45.1249 14.6315C43.8384 15.4015 42.8569 15.7635 42.1643 15.7635V15.952V16.1405C42.9689 16.1405 44.0276 15.7295 45.3242 14.9535L45.2245 14.7925ZM42.1643 15.952V15.7635C41.4787 15.7635 40.8842 15.4804 40.373 14.8911L40.2271 15.0134L40.0813 15.1357C40.6557 15.7979 41.3526 16.1405 42.1643 16.1405V15.952ZM40.2271 15.0134L40.373 14.8911C39.8469 14.2846 39.6046 13.7284 39.6046 13.2189H39.413H39.2213C39.2213 13.8505 39.5216 14.4906 40.0813 15.1357L40.2271 15.0134ZM39.413 13.2189H39.6046C39.6046 12.9314 39.6228 12.695 39.6577 12.5072C39.6926 12.3176 39.7424 12.1893 39.7971 12.1088L39.6376 12.0042L39.4781 11.8997C39.3829 12.04 39.3202 12.2245 39.2805 12.4398C39.2403 12.657 39.2213 12.9175 39.2213 13.2189H39.413ZM39.6376 12.0042L39.7951 12.1115C39.9544 11.8853 40.0729 11.8338 40.1428 11.8338V11.6453V11.4569C39.876 11.4569 39.6575 11.6446 39.4799 11.8969L39.6376 12.0042ZM40.1428 11.6453V11.8338C40.185 11.8338 40.2011 11.8448 40.2109 11.8545C40.2252 11.8685 40.2484 11.9034 40.2632 11.9827L40.4518 11.949L40.6402 11.9153C40.6176 11.7921 40.5706 11.6752 40.4819 11.588C40.3889 11.4964 40.2693 11.4569 40.1428 11.4569V11.6453ZM40.4518 11.949L40.5089 12.1289C41.1429 11.9341 42.1213 11.3444 43.4296 10.3887L43.3154 10.2374L43.2011 10.0861C41.889 11.0445 40.9585 11.5958 40.3945 11.7691L40.4518 11.949ZM43.3154 10.2374L43.43 10.3884C44.7653 9.40831 45.9791 8.39057 47.0714 7.33503L46.9372 7.20061L46.8028 7.0662C45.7238 8.1088 44.5232 9.11555 43.2008 10.0863L43.3154 10.2374ZM46.9372 7.20061L47.0714 7.33503C47.6161 6.80876 48.0289 6.37758 48.3068 6.04302C48.4456 5.87604 48.5542 5.72896 48.629 5.60324C48.6995 5.48492 48.7572 5.35848 48.7572 5.24052H48.5656H48.3739C48.3739 5.24049 48.3739 5.2415 48.3735 5.24373C48.3733 5.24595 48.3727 5.24917 48.3718 5.25347C48.3699 5.2622 48.3664 5.27414 48.3605 5.28966C48.3486 5.32107 48.3287 5.3618 48.2984 5.4127C48.2376 5.51474 48.1426 5.64489 48.0099 5.80457C47.7451 6.12338 47.3437 6.54341 46.8028 7.0662L46.9372 7.20061ZM48.5656 5.24052H48.7572C48.7572 5.0635 48.7014 4.89957 48.5619 4.78516C48.4289 4.67625 48.2505 4.63795 48.0601 4.63795V4.82641V5.01488C48.2068 5.01488 48.2809 5.04561 48.3164 5.07473C48.3453 5.09835 48.3739 5.14149 48.3739 5.24052H48.5656ZM48.0601 4.82641V4.63795C47.7044 4.63795 47.237 4.75951 46.6694 4.98272L46.7406 5.15771L46.8119 5.33268C47.3673 5.11418 47.7794 5.01488 48.0601 5.01488V4.82641ZM46.7406 5.15771L46.6694 4.98272C46.0832 5.21331 45.3179 5.68611 44.3785 6.388L44.4945 6.53805L44.6104 6.68809C45.5431 5.99125 46.275 5.54382 46.8119 5.33268L46.7406 5.15771ZM44.4945 6.53805L44.3806 6.38655C43.4346 7.07495 42.4161 7.96544 41.3257 9.05618L41.4624 9.18832L41.5991 9.32043C42.6798 8.23944 43.683 7.36313 44.6085 6.68956L44.4945 6.53805ZM41.4624 9.18832L41.3269 9.05505C38.6942 11.6438 35.7664 15.3082 32.5437 20.0435L32.7029 20.1482L32.8622 20.253C36.0779 15.5283 38.99 11.8861 41.5979 9.32158L41.4624 9.18832ZM32.7029 20.1482L32.5452 20.0412C31.7952 21.1105 30.7369 22.667 29.3703 24.7102L29.5304 24.8138L29.6906 24.9173C31.0566 22.8747 32.1132 21.321 32.8607 20.2553L32.7029 20.1482ZM29.5304 24.8138L29.3705 24.7098C26.5817 28.8511 24.5916 31.6801 23.3985 33.2016L23.5503 33.3167L23.7021 33.4319C24.9048 31.8982 26.9015 29.0586 29.6902 24.9179L29.5304 24.8138ZM23.5503 33.3167L23.5017 33.499C33.1031 35.9837 39.9845 37.2322 44.1296 37.2322V37.0438V36.8553C40.0393 36.8553 33.201 35.6192 23.5992 33.1345L23.5503 33.3167ZM44.1296 37.0438V37.2322C46.0429 37.2322 47.43 36.9946 48.247 36.485L48.1443 36.3259L48.0417 36.1667C47.324 36.6143 46.0345 36.8553 44.1296 36.8553V37.0438ZM48.1443 36.3259L48.243 36.4874C48.3802 36.4066 48.49 36.3485 48.574 36.3114C48.6158 36.2929 48.6485 36.2807 48.6733 36.2735C48.6993 36.2658 48.7085 36.266 48.7058 36.266V36.0775V35.8891C48.615 35.8891 48.5123 35.9254 48.4166 35.9676C48.3133 36.0134 48.1893 36.0796 48.0458 36.1642L48.1443 36.3259ZM48.7058 36.0775V36.266C48.7034 36.266 48.6919 36.2652 48.6771 36.2575C48.6618 36.2496 48.6528 36.239 48.6485 36.2326C48.6453 36.2273 48.6472 36.2281 48.6499 36.2402C48.6524 36.2518 48.6545 36.2707 48.6545 36.2982H48.8461H49.0378C49.0378 36.2111 49.0252 36.1137 48.9736 36.0328C48.9128 35.9369 48.8139 35.8891 48.7058 35.8891V36.0775ZM48.8461 36.2982H48.6545C48.6545 36.3917 48.5947 36.5745 48.4266 36.8685L48.5935 36.9608L48.7607 37.0532C48.9293 36.7582 49.0378 36.4993 49.0378 36.2982H48.8461ZM48.5935 36.9608L48.4266 36.8685C48.2633 37.1538 47.8478 37.7718 47.1726 38.7309L47.3301 38.8381L47.4876 38.9454C48.1602 37.9902 48.5868 37.357 48.7607 37.0532L48.5935 36.9608ZM47.3301 38.8381L47.1712 38.733C46.8456 39.2085 46.5644 39.5844 46.3269 39.8626C46.0862 40.1451 45.9024 40.3125 45.7731 40.3873L45.8702 40.5497L45.9674 40.7122C46.1564 40.6029 46.3749 40.3931 46.6208 40.105C46.8701 39.8127 47.1597 39.4248 47.4892 38.9433L47.3301 38.8381ZM45.8702 40.5497L45.7727 40.3875C44.9029 40.8937 43.3855 41.1619 41.1816 41.1619V41.3503V41.5388C43.3949 41.5388 45.0033 41.2733 45.9678 40.712L45.8702 40.5497ZM41.1816 41.3503V41.1619C39.0011 41.1619 36.9149 41.0062 34.9229 40.6949L34.8928 40.8811L34.8627 41.0671C36.8761 41.3816 38.9825 41.5388 41.1816 41.5388V41.3503ZM34.8928 40.8811L34.9229 40.6949C32.9415 40.3824 31.3471 40.0797 30.1377 39.787L30.0919 39.97L30.0461 40.153C31.2699 40.4493 32.876 40.7538 34.8624 41.0671L34.8928 40.8811ZM30.0919 39.97L30.1404 39.7876C28.9262 39.4755 27.1219 38.9791 24.7266 38.2982L24.6733 38.4793L24.6202 38.6602C27.0163 39.3413 28.8243 39.8389 30.0434 40.1523L30.0919 39.97ZM24.6733 38.4793L24.7269 38.2984C22.3502 37.6174 20.786 37.1753 20.0357 36.9723L19.9849 37.154L19.9339 37.3359C20.681 37.5379 22.2424 37.9791 24.6198 38.6602L24.6733 38.4793ZM9.73727 35.4701V35.2816C8.50763 35.2816 7.57005 35.3529 6.93473 35.5006C6.61828 35.5743 6.3608 35.6704 6.17832 35.7978C5.99101 35.9286 5.86775 36.1047 5.86775 36.3259H6.05941H6.25108C6.25108 36.2618 6.28105 36.1883 6.40023 36.1052C6.52423 36.0185 6.72651 35.9364 7.02301 35.8674C7.61365 35.73 8.51499 35.6586 9.73727 35.6586V35.4701ZM6.05941 36.3259H5.86775C5.86775 36.5008 5.95138 36.6506 6.08149 36.7728C6.2087 36.8922 6.38754 36.9929 6.6045 37.0801L6.67706 36.9056L6.74964 36.7313C6.55482 36.6529 6.42482 36.5739 6.34616 36.5002C6.27038 36.429 6.25108 36.3719 6.25108 36.3259H6.05941ZM6.67706 36.9056L6.60722 37.0811C7.06485 37.2573 7.59487 37.3425 8.19314 37.3425V37.154V36.9656C7.63094 36.9656 7.15027 36.8853 6.7469 36.7302L6.67706 36.9056ZM8.19314 37.154V37.3425C10.044 37.3425 11.8264 36.8638 13.5377 35.9102L13.4432 35.7462L13.3487 35.5822C11.691 36.5059 9.97334 36.9656 8.19314 36.9656V37.154ZM13.4432 35.7462L13.4679 35.5592C12.0216 35.3745 10.7776 35.2816 9.73727 35.2816V35.4701V35.6586C10.7559 35.6586 11.9825 35.7496 13.4185 35.933L13.4432 35.7462ZM78.4006 24.593L78.2349 24.4983L78.2345 24.4989L78.4006 24.593ZM75.7615 29.783L75.5869 29.7054L75.5865 29.7061L75.7615 29.783ZM73.9085 35.1665L74.0921 35.2206C74.094 35.214 74.0958 35.2074 74.0969 35.2008L73.9085 35.1665ZM76.66 36.6847L76.7681 36.8404C76.7688 36.8398 76.7698 36.8393 76.7706 36.8387L76.66 36.6847ZM78.7094 35.0008L78.8449 35.1341C78.8457 35.1333 78.8463 35.1326 78.847 35.132L78.7094 35.0008ZM80.4501 33.1511L80.3084 33.024C80.3077 33.0248 80.3071 33.0257 80.3063 33.0265L80.4501 33.1511ZM82.5839 35.5805L82.7546 35.6659L82.7552 35.6648L82.5839 35.5805ZM78.9902 39.3626L78.8696 39.216L78.8689 39.2167L78.9902 39.3626ZM70.1464 34.3382L70.3216 34.4147C70.361 34.3274 70.3279 34.2251 70.2445 34.1763C70.161 34.1275 70.0536 34.1477 69.9944 34.2234L70.1464 34.3382ZM64.7841 39.3903L64.6747 39.2354L64.6741 39.236L64.7841 39.3903ZM56.7545 40.3289L56.8867 40.1924L56.8848 40.1907L56.7545 40.3289ZM56.3334 31.4119L56.1582 31.3352L56.1578 31.336L56.3334 31.4119ZM59.3375 26.8015L59.4812 26.9259L59.4822 26.925L59.3375 26.8015ZM75.6773 21.1422L75.4955 21.2017C75.5186 21.27 75.5792 21.3193 75.6519 21.329C75.7243 21.3384 75.7962 21.3065 75.8368 21.2466L75.6773 21.1422ZM76.8003 19.8998L76.8942 20.064C76.8953 20.0634 76.8963 20.0629 76.8975 20.0623L76.8003 19.8998ZM74.4701 22.6882L74.6251 22.799C74.6675 22.7417 74.6736 22.6657 74.6408 22.6026C74.6081 22.5395 74.5421 22.4997 74.4701 22.4997V22.6882ZM64.5313 27.9335L64.3933 27.8027L64.3927 27.8032L64.5313 27.9335ZM61.1623 32.4334L60.9965 32.339L60.9957 32.3401L61.1623 32.4334ZM64.5875 33.9517L64.7124 34.0947L64.713 34.0941L64.5875 33.9517ZM69.3604 29.4517L69.5095 29.5703L69.5105 29.5689L69.3604 29.4517ZM78.204 19.6237V19.8122C78.8994 19.8122 79.3871 19.9302 79.6961 20.1381C79.9922 20.3373 80.1461 20.6335 80.1461 21.0593H80.3378H80.5294C80.5294 20.528 80.3278 20.1064 79.9127 19.8271C79.5104 19.5565 78.9312 19.4353 78.204 19.4353V19.6237ZM80.3378 21.0593H80.1461C80.1461 21.5502 80.0296 21.8687 79.8373 22.0579L79.9729 22.1912L80.1084 22.3244C80.4026 22.0351 80.5294 21.5988 80.5294 21.0593H80.3378ZM79.9729 22.1912L79.8373 22.0579C79.699 22.194 79.4968 22.4709 79.2361 22.8691C78.9718 23.2728 78.6379 23.8163 78.2349 24.4983L78.4006 24.593L78.5662 24.6876C78.968 24.0078 79.2986 23.4699 79.5585 23.073C79.8218 22.6706 80.0033 22.4277 80.1084 22.3244L79.9729 22.1912ZM78.4006 24.593L78.2345 24.4989C77.4441 25.8498 76.5617 27.5857 75.5869 29.7054L75.7615 29.783L75.9361 29.8607C76.908 27.7473 77.7848 26.0232 78.5666 24.687L78.4006 24.593ZM75.7615 29.783L75.5865 29.7061C74.6286 31.8117 74.0045 33.6211 73.7201 35.132L73.9085 35.1665L74.0969 35.2008C74.3739 33.73 74.9853 31.9507 75.9365 29.8599L75.7615 29.783ZM73.9085 35.1665L73.7249 35.1122C73.6609 35.3222 73.6327 35.6011 73.6327 35.9394H73.8244H74.016C74.016 35.6152 74.0438 35.3789 74.0921 35.2206L73.9085 35.1665ZM73.8244 35.9394H73.6327C73.6327 36.4565 73.7032 36.874 73.8665 37.1683C73.9499 37.3185 74.0591 37.4403 74.1981 37.5238C74.3374 37.6075 74.4959 37.6463 74.6665 37.6463V37.4578V37.2694C74.5565 37.2694 74.4693 37.2449 74.398 37.2021C74.3263 37.1591 74.2602 37.0909 74.2031 36.988C74.0858 36.7763 74.016 36.4347 74.016 35.9394H73.8244ZM74.6665 37.4578V37.6463C75.2844 37.6463 75.9876 37.3645 76.7681 36.8404L76.66 36.6847L76.5519 36.5291C75.7975 37.0357 75.1717 37.2694 74.6665 37.2694V37.4578ZM76.66 36.6847L76.7706 36.8387C77.5458 36.2993 78.2375 35.7313 78.8449 35.1341L78.7094 35.0008L78.5739 34.8676C77.9834 35.448 77.3088 36.0027 76.5492 36.531L76.66 36.6847ZM78.7094 35.0008L78.847 35.132C79.4481 34.5225 80.0304 33.9038 80.5938 33.2758L80.4501 33.1511L80.3063 33.0265C79.7469 33.6499 79.1686 34.2643 78.5718 34.8697L78.7094 35.0008ZM80.4501 33.1511L80.5917 33.2781C81.1774 32.6464 81.5121 32.3007 81.6116 32.2193L81.4889 32.0744L81.3662 31.9296C81.2411 32.0322 80.8832 32.4042 80.3084 33.024L80.4501 33.1511ZM81.4889 32.0744L81.6116 32.2193C81.6752 32.1671 81.7915 32.1249 81.9943 32.1249V31.9364V31.748C81.7478 31.748 81.5272 31.7977 81.3662 31.9296L81.4889 32.0744ZM81.9943 31.9364V32.1249C82.1154 32.1249 82.2021 32.1667 82.2722 32.2536C82.3496 32.3495 82.4148 32.5116 82.4501 32.7628L82.64 32.737L82.8297 32.7112C82.7903 32.4287 82.7105 32.1905 82.5725 32.0195C82.4274 31.8395 82.2287 31.748 81.9943 31.748V31.9364ZM82.64 32.737L82.4501 32.7628C82.5237 33.2875 82.5607 33.831 82.5607 34.3934H82.7523H82.944C82.944 33.8148 82.906 33.254 82.8297 32.7112L82.64 32.737ZM82.7523 34.3934H82.5607C82.5607 34.9635 82.5026 35.3188 82.4123 35.4963L82.5839 35.5805L82.7552 35.6648C82.8895 35.4006 82.944 34.9644 82.944 34.3934H82.7523ZM82.5839 35.5805L82.4131 35.495C81.8895 36.507 80.7184 37.7471 78.8696 39.216L78.9902 39.3626L79.1106 39.5092C80.968 38.0334 82.1927 36.7522 82.7546 35.6659L82.5839 35.5805ZM78.9902 39.3626L78.8689 39.2167C77.0508 40.6762 75.4178 41.3828 73.9647 41.3828V41.5712V41.7597C75.5438 41.7597 77.261 40.9939 79.1113 39.5087L78.9902 39.3626ZM73.9647 41.5712V41.3828C72.5078 41.3828 71.4681 40.9459 70.8032 40.1029L70.6518 40.2184L70.5004 40.334C71.258 41.2947 72.4268 41.7597 73.9647 41.7597V41.5712ZM70.6518 40.2184L70.8032 40.1029C70.1167 39.2324 69.7767 38.2788 69.7767 37.2369H69.585H69.3933C69.3933 38.3668 69.7644 39.4009 70.5004 40.334L70.6518 40.2184ZM69.585 37.2369H69.7767C69.7767 36.1535 69.9603 35.2142 70.3216 34.4147L70.1464 34.3382L69.9712 34.2617C69.5839 35.1186 69.3933 36.1118 69.3933 37.2369H69.585ZM70.1464 34.3382L69.9944 34.2234C68.4525 36.1962 66.6794 37.8666 64.6747 39.2354L64.7841 39.3903L64.8933 39.545C66.9317 38.1532 68.7333 36.4556 70.2984 34.453L70.1464 34.3382ZM64.7841 39.3903L64.6741 39.236C62.6783 40.6114 61.0818 41.2723 59.8709 41.2723V41.4608V41.6492C61.2054 41.6492 62.8844 40.9299 64.8941 39.5447L64.7841 39.3903ZM59.8709 41.4608V41.2723C58.6396 41.2723 57.6507 40.9088 56.8867 40.1924L56.7545 40.3289L56.6222 40.4653C57.4678 41.2582 58.5565 41.6492 59.8709 41.6492V41.4608ZM56.7545 40.3289L56.8848 40.1907C55.9021 39.2948 55.4021 38.0517 55.4021 36.4363H55.2104H55.0188C55.0188 38.1338 55.548 39.4857 56.6241 40.467L56.7545 40.3289ZM55.2104 36.4363H55.4021C55.4021 34.7899 55.7699 33.1409 56.5088 31.4877L56.3334 31.4119L56.1578 31.336C55.3996 33.0325 55.0188 34.733 55.0188 36.4363H55.2104ZM56.3334 31.4119L56.5084 31.4886C57.2679 29.8126 58.2588 28.2919 59.4812 26.9259L59.3375 26.8015L59.1935 26.677C57.9452 28.0718 56.9335 29.6247 56.1584 31.3352L56.3334 31.4119ZM59.3375 26.8015L59.4822 26.925C60.7096 25.5353 62.0577 24.2737 63.5266 23.1401L63.4084 22.9918L63.2901 22.8434C61.8019 23.9919 60.4361 25.2701 59.1928 26.6779L59.3375 26.8015ZM63.4084 22.9918L63.5266 23.1401C66.616 20.7609 69.4388 19.5913 71.9994 19.5913V19.4029V19.2144C69.3194 19.2144 66.4146 20.4373 63.2901 22.8434L63.4084 22.9918ZM71.9994 19.4029V19.5913C72.9908 19.5913 73.7805 19.7542 74.3804 20.0664L74.4701 19.8998L74.5598 19.7332C73.8868 19.3829 73.0295 19.2144 71.9994 19.2144V19.4029ZM74.4701 19.8998L74.3804 20.0664C74.9889 20.3831 75.3475 20.7649 75.4955 21.2017L75.6773 21.1422L75.859 21.0824C75.6702 20.5254 75.2241 20.0791 74.5598 19.7332L74.4701 19.8998ZM75.6773 21.1422L75.8368 21.2466C76.2861 20.5838 76.6387 20.2053 76.8942 20.064L76.8003 19.8998L76.7064 19.7355C76.3629 19.9255 75.9669 20.3751 75.5179 21.0376L75.6773 21.1422ZM76.8003 19.8998L76.8975 20.0623C77.1725 19.903 77.6001 19.8122 78.204 19.8122V19.6237V19.4353C77.5727 19.4353 77.0644 19.5284 76.7031 19.7374L76.8003 19.8998ZM74.4701 22.6882V22.4997C71.195 22.4997 67.8353 24.2886 64.3933 27.8027L64.5313 27.9335L64.6695 28.0641C68.0778 24.5845 71.3439 22.8766 74.4701 22.8766V22.6882ZM64.5313 27.9335L64.3927 27.8032C63.1642 29.0671 62.0322 30.5797 60.9965 32.339L61.1623 32.4334L61.3283 32.5278C62.3512 30.7902 63.4655 29.3026 64.6699 28.0637L64.5313 27.9335ZM61.1623 32.4334L60.9957 32.3401C60.4884 33.218 60.1051 33.9614 59.8482 34.5696C59.5937 35.1721 59.4546 35.661 59.4546 36.0223H59.6462H59.8379C59.8379 35.7392 59.9516 35.3078 60.2022 34.7142C60.4508 34.126 60.8255 33.3972 61.329 32.5265L61.1623 32.4334ZM59.6462 36.0223H59.4546C59.4546 36.3561 59.5019 36.6369 59.6202 36.8404C59.7476 37.0596 59.9512 37.177 60.2078 37.177V36.9885V36.8001C60.0901 36.8001 60.0129 36.7564 59.9531 36.6535C59.8841 36.5347 59.8379 36.3325 59.8379 36.0223H59.6462ZM60.2078 36.9885V37.177C60.3884 37.177 60.6136 37.0941 60.8646 36.9659C61.1234 36.8338 61.4377 36.6388 61.8063 36.3832C62.5436 35.8721 63.5128 35.1082 64.7124 34.0947L64.5875 33.9517L64.4627 33.8088C63.2663 34.8195 62.3078 35.5743 61.5853 36.0753C61.2238 36.3259 60.9252 36.5104 60.6879 36.6314C60.443 36.7564 60.2891 36.8001 60.2078 36.8001V36.9885ZM64.5875 33.9517L64.713 34.0941C67.1084 32.0516 68.7114 30.5418 69.5095 29.5703L69.3604 29.4517L69.2113 29.3334C68.4372 30.2759 66.8583 31.766 64.4619 33.8094L64.5875 33.9517ZM69.3604 29.4517L69.5105 29.5689C70.3745 28.4977 72.0801 26.2399 74.6251 22.799L74.4701 22.6882L74.315 22.5771C71.769 26.0196 70.0682 28.2708 69.2101 29.3347L69.3604 29.4517ZM92.4854 35.0836L92.6767 35.0954C92.6769 35.0915 92.6771 35.0875 92.6771 35.0836H92.4854ZM92.4573 35.5253L92.266 35.5134C92.2658 35.5174 92.2656 35.5214 92.2656 35.5253H92.4573ZM99.9253 36.2155L99.8561 36.0396L99.8556 36.04L99.9253 36.2155ZM101.582 33.4272L101.512 33.6024C101.514 33.6034 101.516 33.6041 101.518 33.6049L101.582 33.4272ZM98.4093 32.5713L98.3644 32.7545C98.3654 32.7547 98.3664 32.7551 98.3673 32.7553L98.4093 32.5713ZM95.1806 31.7708L95.1246 31.9509C95.1261 31.9515 95.1279 31.9519 95.1294 31.9524L95.1806 31.7708ZM92.3731 30.5284L92.4858 30.3759C92.4851 30.3754 92.4841 30.3748 92.4833 30.3742L92.3731 30.5284ZM92.4011 24.2341L92.2482 24.1207L92.2478 24.121L92.4011 24.2341ZM100.234 18.9336L100.161 18.7595L100.161 18.7596L100.234 18.9336ZM111.914 18.3538L112.087 18.2736C112.085 18.2703 112.084 18.2672 112.082 18.264L111.914 18.3538ZM111.492 21.8876L111.34 21.7728C111.34 21.7739 111.339 21.7749 111.338 21.776L111.492 21.8876ZM109.499 23.3783L109.415 23.2091L109.413 23.2096L109.499 23.3783ZM106.327 23.9303L106.232 24.0941C106.235 24.0958 106.238 24.0975 106.241 24.099L106.327 23.9303ZM105.99 23.6544L105.834 23.7639C105.837 23.7677 105.839 23.7714 105.842 23.775L105.99 23.6544ZM105.625 23.3783L105.549 23.5515C105.552 23.5526 105.555 23.5538 105.557 23.5547L105.625 23.3783ZM105.709 22.3016L105.856 22.4222C105.858 22.4203 105.859 22.4185 105.861 22.4166L105.709 22.3016ZM106.102 21.5562L106.286 21.6081C106.303 21.5496 106.291 21.4869 106.252 21.4394C106.214 21.3917 106.155 21.3651 106.093 21.368L106.102 21.5562ZM102.228 22.4121L102.295 22.5885L102.297 22.5877L102.228 22.4121ZM98.7462 24.096L98.6414 23.9382L98.6399 23.9392L98.7462 24.096ZM96.6968 27.7953L96.734 27.6104H96.7336L96.6968 27.7953ZM102.592 39.4455L102.51 39.2755L102.508 39.2763L102.592 39.4455ZM90.0709 40.605L90.1911 40.4581L90.1907 40.4578L90.0709 40.605ZM89.5095 35.691L89.3455 35.5934L89.3447 35.5945L89.5095 35.691ZM92.4854 35.0836L92.2942 35.0719L92.266 35.5134L92.4573 35.5253L92.6485 35.537L92.6767 35.0954L92.4854 35.0836ZM92.4573 35.5253H92.2656C92.2656 36.0398 92.4672 36.4842 92.859 36.8493L92.9908 36.7124L93.1225 36.5756C92.8032 36.278 92.6489 35.9311 92.6489 35.5253H92.4573ZM92.9908 36.7124L92.859 36.8493C93.2287 37.1938 93.6017 37.3977 93.9735 37.3977V37.2092V37.0208C93.7462 37.0208 93.4641 36.8936 93.1225 36.5756L92.9908 36.7124ZM93.9735 37.2092V37.3977C96.2384 37.3977 98.2468 37.0637 99.9953 36.3909L99.9253 36.2155L99.8556 36.04C98.1601 36.6923 96.2006 37.0208 93.9735 37.0208V37.2092ZM99.9253 36.2155L99.9945 36.3913C100.872 36.0572 101.544 35.7181 102.001 35.3706C102.454 35.0261 102.728 34.6461 102.728 34.2278H102.536H102.345C102.345 34.4718 102.184 34.7545 101.766 35.0726C101.352 35.3876 100.719 35.7111 99.8561 36.0396L99.9253 36.2155ZM102.536 34.2278H102.728C102.728 34.0001 102.61 33.8069 102.422 33.6495C102.238 33.4948 101.974 33.3635 101.646 33.2494L101.582 33.4272L101.518 33.6049C101.826 33.7117 102.04 33.8242 102.173 33.9364C102.304 34.0459 102.345 34.1426 102.345 34.2278H102.536ZM101.582 33.4272L101.652 33.2519C101.019 33.0067 99.9491 32.7189 98.4515 32.3874L98.4093 32.5713L98.3673 32.7553C99.8642 33.0864 100.909 33.3691 101.512 33.6024L101.582 33.4272ZM98.4093 32.5713L98.4541 32.3882C96.9757 32.0386 95.9024 31.7723 95.2319 31.5891L95.1806 31.7708L95.1294 31.9524C95.8065 32.1373 96.8856 32.4049 98.3644 32.7545L98.4093 32.5713ZM95.1806 31.7708L95.2367 31.5906C94.5659 31.3889 94.0398 31.2073 93.6559 31.0454L93.5804 31.2186L93.5049 31.3918C93.907 31.5614 94.4479 31.7476 95.1246 31.9509L95.1806 31.7708ZM93.5804 31.2186L93.6559 31.0454C93.2781 30.8863 92.8881 30.6637 92.4858 30.3759L92.3731 30.5284L92.2604 30.6809C92.6817 30.982 93.0965 31.2197 93.5049 31.3918L93.5804 31.2186ZM92.3731 30.5284L92.4833 30.3742C91.6621 29.8072 91.2452 28.9672 91.2452 27.823H91.0535H90.8619C90.8619 29.0712 91.3249 30.035 92.2629 30.6828L92.3731 30.5284ZM91.0535 27.823H91.2452C91.2452 26.6572 91.6757 25.4995 92.5544 24.3472L92.4011 24.2341L92.2478 24.121C91.3299 25.3244 90.8619 26.5594 90.8619 27.823H91.0535ZM92.4011 24.2341L92.5542 24.3476C93.4566 23.1706 94.5807 22.1644 95.9286 21.3291L95.8265 21.1697L95.7241 21.0103C94.3394 21.8683 93.18 22.9051 92.2482 24.1207L92.4011 24.2341ZM95.8265 21.1697L95.9286 21.3291C97.2854 20.4884 98.7451 19.7478 100.308 19.1075L100.234 18.9336L100.161 18.7596C98.5789 19.4076 97.1001 20.1577 95.7241 21.0103L95.8265 21.1697ZM100.234 18.9336L100.308 19.1075C103.404 17.8422 105.988 17.2171 108.067 17.2171V17.0287V16.8402C105.916 16.8402 103.279 17.485 100.161 18.7595L100.234 18.9336ZM108.067 17.0287V17.2171C109.095 17.2171 109.911 17.3267 110.524 17.5378C111.135 17.7484 111.531 18.0551 111.745 18.4436L111.914 18.3538L112.082 18.264C111.809 17.7691 111.321 17.4132 110.65 17.1821C109.981 16.9515 109.117 16.8402 108.067 16.8402V17.0287ZM111.914 18.3538L111.74 18.4341C111.877 18.719 111.947 19.0408 111.947 19.4029H112.138H112.33C112.33 18.9918 112.25 18.6144 112.087 18.2736L111.914 18.3538ZM112.138 19.4029H111.947V19.596H112.138H112.33V19.4029H112.138ZM112.138 19.596H111.947C111.947 20.5465 111.737 21.2645 111.34 21.7728L111.492 21.8876L111.644 22.0021C112.109 21.4062 112.33 20.5968 112.33 19.596H112.138ZM111.492 21.8876L111.338 21.776C110.951 22.2948 110.316 22.7748 109.415 23.2091L109.499 23.3783L109.583 23.5475C110.516 23.0982 111.21 22.5845 111.647 21.9989L111.492 21.8876ZM109.499 23.3783L109.413 23.2096C108.523 23.6476 107.835 23.8523 107.337 23.8523V24.0408V24.2292C107.925 24.2292 108.679 23.9923 109.585 23.5468L109.499 23.3783ZM107.337 24.0408V23.8523C107.079 23.8523 106.872 23.8432 106.713 23.8259C106.549 23.808 106.455 23.7829 106.412 23.7618L106.327 23.9303L106.241 24.099C106.348 24.1514 106.498 24.1817 106.67 24.2006C106.849 24.22 107.072 24.2292 107.337 24.2292V24.0408ZM106.327 23.9303L106.422 23.7667C106.31 23.704 106.215 23.6263 106.137 23.5336L105.99 23.6544L105.842 23.775C105.951 23.9032 106.081 24.0097 106.232 24.0941L106.327 23.9303ZM105.99 23.6544L106.146 23.5447C106.03 23.3857 105.878 23.2703 105.692 23.2017L105.625 23.3783L105.557 23.5547C105.671 23.5967 105.762 23.6653 105.834 23.7639L105.99 23.6544ZM105.625 23.3783L105.7 23.2051C105.676 23.1949 105.62 23.1584 105.62 22.9641H105.428H105.236C105.236 23.2117 105.311 23.4512 105.549 23.5515L105.625 23.3783ZM105.428 22.9641H105.62C105.62 22.7992 105.689 22.6196 105.856 22.4222L105.709 22.3016L105.562 22.181C105.355 22.4252 105.236 22.6874 105.236 22.9641H105.428ZM105.709 22.3016L105.861 22.4166C106.061 22.1608 106.204 21.8911 106.286 21.6081L106.102 21.5562L105.918 21.5044C105.85 21.7366 105.731 21.9639 105.557 22.1867L105.709 22.3016ZM106.102 21.5562L106.093 21.368C104.834 21.4241 103.522 21.7149 102.158 22.2364L102.228 22.4121L102.297 22.5877C103.628 22.0785 104.899 21.7986 106.111 21.7445L106.102 21.5562ZM102.228 22.4121L102.16 22.2355C100.802 22.7362 99.6288 23.3035 98.6414 23.9382L98.7462 24.096L98.8511 24.2537C99.8101 23.6371 100.957 23.0817 102.295 22.5885L102.228 22.4121ZM98.7462 24.096L98.6399 23.9392C97.6798 24.5686 96.876 25.1727 96.2307 25.7512L96.3599 25.8905L96.489 26.0298C97.1163 25.4672 97.9035 24.8749 98.8526 24.2528L98.7462 24.096ZM96.3599 25.8905L96.2307 25.7512C95.9081 26.0403 95.6593 26.2982 95.4897 26.5239C95.3253 26.7427 95.2135 26.9593 95.2135 27.1604H95.4052H95.5969C95.5969 27.0856 95.6444 26.9523 95.7981 26.7478C95.9466 26.5501 96.1751 26.3112 96.489 26.0298L96.3599 25.8905ZM95.4052 27.1604H95.2135C95.2135 27.4058 95.4175 27.5703 95.6425 27.6809C95.8809 27.7981 96.224 27.8965 96.66 27.9804L96.6968 27.7953L96.7336 27.6104C96.3085 27.5286 96.0059 27.4382 95.8138 27.3438C95.6084 27.2427 95.5969 27.1726 95.5969 27.1604H95.4052ZM96.6968 27.7953L96.6594 27.9802C100.537 28.7356 103.06 29.3854 104.253 29.9266L104.333 29.7555L104.413 29.5844C103.173 29.0213 100.605 28.3645 96.734 27.6104L96.6968 27.7953ZM104.333 29.7555L104.253 29.9266C105.454 30.4717 106.26 31.0787 106.7 31.7363L106.86 31.6328L107.02 31.5291C106.524 30.7881 105.646 30.1436 104.413 29.5844L104.333 29.7555ZM106.86 31.6328L106.7 31.7363C107.156 32.4185 107.37 33.0173 107.37 33.5376H107.562H107.754C107.754 32.9168 107.5 32.2457 107.02 31.5291L106.86 31.6328ZM107.562 33.5376H107.37C107.37 34.6605 106.917 35.7307 105.987 36.7524L106.13 36.8781L106.273 37.0036C107.252 35.9271 107.754 34.7705 107.754 33.5376H107.562ZM106.13 36.8781L105.987 36.7524C105.051 37.7814 103.893 38.6227 102.51 39.2755L102.592 39.4455L102.675 39.6153C104.1 38.9431 105.3 38.0728 106.273 37.0036L106.13 36.8781ZM102.592 39.4455L102.508 39.2763C99.509 40.7233 96.9094 41.438 94.7033 41.438V41.6264V41.8149C96.9895 41.8149 99.6492 41.0756 102.677 39.6146L102.592 39.4455ZM94.7033 41.6264V41.438C92.4826 41.438 90.9974 41.0957 90.1911 40.4581L90.0709 40.605L89.9507 40.7518C90.8665 41.476 92.4697 41.8149 94.7033 41.8149V41.6264ZM90.0709 40.605L90.1907 40.4578C89.3861 39.8249 88.9991 39.0846 88.9991 38.2307H88.8075H88.6158C88.6158 39.2175 89.0714 40.0599 89.9513 40.7522L90.0709 40.605ZM88.8075 38.2307H88.9991C88.9991 37.3436 89.2243 36.5304 89.6742 35.7873L89.5095 35.691L89.3447 35.5945C88.8588 36.3973 88.6158 37.2775 88.6158 38.2307H88.8075ZM89.5095 35.691L89.6734 35.7884C90.1357 35.0368 90.6986 34.6923 91.3625 34.6923V34.5038V34.3154C90.529 34.3154 89.8566 34.7622 89.3455 35.5934L89.5095 35.691ZM91.3625 34.5038V34.6923C91.7263 34.6923 91.9697 34.7404 92.1155 34.8156C92.1857 34.8519 92.228 34.8917 92.2533 34.9309C92.2783 34.9695 92.2938 35.0182 92.2938 35.0836H92.4854H92.6771C92.6771 34.9558 92.6457 34.8354 92.5771 34.7289C92.5088 34.6233 92.4107 34.5423 92.2938 34.482C92.0653 34.364 91.7473 34.3154 91.3625 34.3154V34.5038ZM122.854 35.0836L123.045 35.0954C123.045 35.0915 123.046 35.0875 123.046 35.0836H122.854ZM122.826 35.5253L122.635 35.5134C122.634 35.5174 122.634 35.5214 122.634 35.5253H122.826ZM130.294 36.2155L130.225 36.0396L130.224 36.04L130.294 36.2155ZM131.95 33.4272L131.88 33.6024C131.882 33.6034 131.884 33.6041 131.887 33.6049L131.95 33.4272ZM128.778 32.5713L128.733 32.7545C128.734 32.7547 128.735 32.7551 128.736 32.7553L128.778 32.5713ZM125.549 31.7708L125.493 31.9509C125.495 31.9515 125.496 31.9519 125.498 31.9524L125.549 31.7708ZM122.742 30.5284L122.854 30.3759C122.854 30.3754 122.853 30.3748 122.852 30.3742L122.742 30.5284ZM122.77 24.2341L122.617 24.1207L122.616 24.121L122.77 24.2341ZM130.603 18.9336L130.529 18.7595L130.529 18.7596L130.603 18.9336ZM142.282 18.3538L142.455 18.2736C142.454 18.2703 142.452 18.2672 142.451 18.264L142.282 18.3538ZM141.861 21.8876L141.709 21.7728C141.708 21.7739 141.707 21.7749 141.706 21.776L141.861 21.8876ZM139.868 23.3783L139.783 23.2091L139.782 23.2096L139.868 23.3783ZM136.695 23.9303L136.6 24.0941C136.603 24.0958 136.606 24.0975 136.609 24.099L136.695 23.9303ZM136.358 23.6544L136.202 23.7639C136.205 23.7677 136.208 23.7714 136.211 23.775L136.358 23.6544ZM135.993 23.3783L135.918 23.5515C135.92 23.5526 135.923 23.5538 135.926 23.5547L135.993 23.3783ZM136.077 22.3016L136.225 22.4222C136.226 22.4203 136.228 22.4185 136.229 22.4166L136.077 22.3016ZM136.47 21.5562L136.655 21.6081C136.672 21.5496 136.659 21.4869 136.621 21.4394C136.583 21.3917 136.523 21.3651 136.462 21.368L136.47 21.5562ZM132.596 22.4121L132.663 22.5885L132.666 22.5877L132.596 22.4121ZM129.115 24.096L129.01 23.9382L129.008 23.9392L129.115 24.096ZM127.065 27.7953L127.102 27.6104H127.102L127.065 27.7953ZM132.961 39.4455L132.878 39.2755L132.877 39.2763L132.961 39.4455ZM120.439 40.605L120.56 40.4581L120.559 40.4578L120.439 40.605ZM119.878 35.691L119.714 35.5934L119.713 35.5945L119.878 35.691ZM122.854 35.0836L122.663 35.0719L122.635 35.5134L122.826 35.5253L123.017 35.537L123.045 35.0954L122.854 35.0836ZM122.826 35.5253H122.634C122.634 36.0398 122.836 36.4842 123.227 36.8493L123.359 36.7124L123.491 36.5756C123.172 36.278 123.018 35.9311 123.018 35.5253H122.826ZM123.359 36.7124L123.227 36.8493C123.597 37.1938 123.97 37.3977 124.342 37.3977V37.2092V37.0208C124.115 37.0208 123.833 36.8936 123.491 36.5756L123.359 36.7124ZM124.342 37.2092V37.3977C126.607 37.3977 128.615 37.0637 130.364 36.3909L130.294 36.2155L130.224 36.04C128.529 36.6923 126.569 37.0208 124.342 37.0208V37.2092ZM130.294 36.2155L130.363 36.3913C131.24 36.0572 131.913 35.7181 132.37 35.3706C132.822 35.0261 133.097 34.6461 133.097 34.2278H132.905H132.713C132.713 34.4718 132.553 34.7545 132.135 35.0726C131.721 35.3876 131.088 35.7111 130.225 36.0396L130.294 36.2155ZM132.905 34.2278H133.097C133.097 34.0001 132.978 33.8069 132.791 33.6495C132.606 33.4948 132.343 33.3635 132.014 33.2494L131.95 33.4272L131.887 33.6049C132.195 33.7117 132.408 33.8242 132.542 33.9364C132.673 34.0459 132.713 34.1426 132.713 34.2278H132.905ZM131.95 33.4272L132.021 33.2519C131.388 33.0067 130.318 32.7189 128.82 32.3874L128.778 32.5713L128.736 32.7553C130.233 33.0864 131.277 33.3691 131.88 33.6024L131.95 33.4272ZM128.778 32.5713L128.823 32.3882C127.344 32.0386 126.271 31.7723 125.6 31.5891L125.549 31.7708L125.498 31.9524C126.175 32.1373 127.254 32.4049 128.733 32.7545L128.778 32.5713ZM125.549 31.7708L125.605 31.5906C124.934 31.3889 124.408 31.2073 124.024 31.0454L123.949 31.2186L123.873 31.3918C124.275 31.5614 124.816 31.7476 125.493 31.9509L125.549 31.7708ZM123.949 31.2186L124.024 31.0454C123.647 30.8863 123.257 30.6637 122.854 30.3759L122.742 30.5284L122.629 30.6809C123.05 30.982 123.465 31.2197 123.873 31.3918L123.949 31.2186ZM122.742 30.5284L122.852 30.3742C122.031 29.8072 121.614 28.9672 121.614 27.823H121.422H121.23C121.23 29.0712 121.693 30.035 122.632 30.6828L122.742 30.5284ZM121.422 27.823H121.614C121.614 26.6572 122.044 25.4995 122.923 24.3472L122.77 24.2341L122.616 24.121C121.699 25.3244 121.23 26.5594 121.23 27.823H121.422ZM122.77 24.2341L122.923 24.3476C123.825 23.1706 124.949 22.1644 126.297 21.3291L126.195 21.1697L126.093 21.0103C124.708 21.8683 123.549 22.9051 122.617 24.1207L122.77 24.2341ZM126.195 21.1697L126.297 21.3291C127.654 20.4884 129.114 19.7478 130.676 19.1075L130.603 18.9336L130.529 18.7596C128.947 19.4076 127.469 20.1577 126.093 21.0103L126.195 21.1697ZM130.603 18.9336L130.676 19.1075C133.772 17.8422 136.356 17.2171 138.436 17.2171V17.0287V16.8402C136.285 16.8402 133.647 17.485 130.529 18.7595L130.603 18.9336ZM138.436 17.0287V17.2171C139.463 17.2171 140.279 17.3267 140.892 17.5378C141.503 17.7484 141.899 18.0551 142.114 18.4436L142.282 18.3538L142.451 18.264C142.178 17.7691 141.69 17.4132 141.019 17.1821C140.35 16.9515 139.486 16.8402 138.436 16.8402V17.0287ZM142.282 18.3538L142.109 18.4341C142.245 18.719 142.315 19.0408 142.315 19.4029H142.507H142.698C142.698 18.9918 142.619 18.6144 142.455 18.2736L142.282 18.3538ZM142.507 19.4029H142.315V19.596H142.507H142.698V19.4029H142.507ZM142.507 19.596H142.315C142.315 20.5465 142.105 21.2645 141.709 21.7728L141.861 21.8876L142.013 22.0021C142.478 21.4062 142.698 20.5968 142.698 19.596H142.507ZM141.861 21.8876L141.706 21.776C141.32 22.2948 140.685 22.7748 139.783 23.2091L139.868 23.3783L139.952 23.5475C140.885 23.0982 141.579 22.5845 142.015 21.9989L141.861 21.8876ZM139.868 23.3783L139.782 23.2096C138.891 23.6476 138.203 23.8523 137.706 23.8523V24.0408V24.2292C138.294 24.2292 139.047 23.9923 139.953 23.5468L139.868 23.3783ZM137.706 24.0408V23.8523C137.448 23.8523 137.24 23.8432 137.081 23.8259C136.917 23.808 136.824 23.7829 136.781 23.7618L136.695 23.9303L136.609 24.099C136.716 24.1514 136.866 24.1817 137.039 24.2006C137.217 24.22 137.44 24.2292 137.706 24.2292V24.0408ZM136.695 23.9303L136.79 23.7667C136.678 23.704 136.584 23.6263 136.505 23.5336L136.358 23.6544L136.211 23.775C136.32 23.9032 136.45 24.0097 136.6 24.0941L136.695 23.9303ZM136.358 23.6544L136.514 23.5447C136.399 23.3857 136.246 23.2703 136.061 23.2017L135.993 23.3783L135.926 23.5547C136.04 23.5967 136.131 23.6653 136.202 23.7639L136.358 23.6544ZM135.993 23.3783L136.069 23.2051C136.045 23.1949 135.988 23.1584 135.988 22.9641H135.797H135.605C135.605 23.2117 135.68 23.4512 135.918 23.5515L135.993 23.3783ZM135.797 22.9641H135.988C135.988 22.7992 136.057 22.6196 136.225 22.4222L136.077 22.3016L135.93 22.181C135.723 22.4252 135.605 22.6874 135.605 22.9641H135.797ZM136.077 22.3016L136.229 22.4166C136.429 22.1608 136.572 21.8911 136.655 21.6081L136.47 21.5562L136.286 21.5044C136.219 21.7366 136.1 21.9639 135.926 22.1867L136.077 22.3016ZM136.47 21.5562L136.462 21.368C135.202 21.4241 133.891 21.7149 132.527 22.2364L132.596 22.4121L132.666 22.5877C133.997 22.0785 135.268 21.7986 136.479 21.7445L136.47 21.5562ZM132.596 22.4121L132.529 22.2355C131.171 22.7362 129.997 23.3035 129.01 23.9382L129.115 24.096L129.22 24.2537C130.179 23.6371 131.326 23.0817 132.663 22.5885L132.596 22.4121ZM129.115 24.096L129.008 23.9392C128.048 24.5686 127.245 25.1727 126.599 25.7512L126.728 25.8905L126.858 26.0298C127.485 25.4672 128.272 24.8749 129.221 24.2528L129.115 24.096ZM126.728 25.8905L126.599 25.7512C126.277 26.0403 126.028 26.2982 125.858 26.5239C125.694 26.7427 125.582 26.9593 125.582 27.1604H125.774H125.966C125.966 27.0856 126.013 26.9523 126.167 26.7478C126.315 26.5501 126.544 26.3112 126.858 26.0298L126.728 25.8905ZM125.774 27.1604H125.582C125.582 27.4058 125.786 27.5703 126.011 27.6809C126.249 27.7981 126.592 27.8965 127.028 27.9804L127.065 27.7953L127.102 27.6104C126.677 27.5286 126.374 27.4382 126.182 27.3438C125.977 27.2427 125.966 27.1726 125.966 27.1604H125.774ZM127.065 27.7953L127.028 27.9802C130.906 28.7356 133.429 29.3854 134.621 29.9266L134.702 29.7555L134.782 29.5844C133.541 29.0213 130.973 28.3645 127.102 27.6104L127.065 27.7953ZM134.702 29.7555L134.621 29.9266C135.823 30.4717 136.628 31.0787 137.068 31.7363L137.229 31.6328L137.389 31.5291C136.893 30.7881 136.014 30.1436 134.782 29.5844L134.702 29.7555ZM137.229 31.6328L137.068 31.7363C137.525 32.4185 137.739 33.0173 137.739 33.5376H137.93H138.122C138.122 32.9168 137.868 32.2457 137.389 31.5291L137.229 31.6328ZM137.93 33.5376H137.739C137.739 34.6605 137.285 35.7307 136.356 36.7524L136.499 36.8781L136.641 37.0036C137.621 35.9271 138.122 34.7705 138.122 33.5376H137.93ZM136.499 36.8781L136.356 36.7524C135.419 37.7814 134.261 38.6227 132.878 39.2755L132.961 39.4455L133.044 39.6153C134.469 38.9431 135.669 38.0728 136.641 37.0036L136.499 36.8781ZM132.961 39.4455L132.877 39.2763C129.878 40.7233 127.278 41.438 125.072 41.438V41.6264V41.8149C127.358 41.8149 130.018 41.0756 133.046 39.6146L132.961 39.4455ZM125.072 41.6264V41.438C122.851 41.438 121.366 41.0957 120.56 40.4581L120.439 40.605L120.319 40.7518C121.235 41.476 122.838 41.8149 125.072 41.8149V41.6264ZM120.439 40.605L120.559 40.4578C119.755 39.8249 119.368 39.0846 119.368 38.2307H119.176H118.984C118.984 39.2175 119.44 40.0599 120.32 40.7522L120.439 40.605ZM119.176 38.2307H119.368C119.368 37.3436 119.593 36.5304 120.043 35.7873L119.878 35.691L119.713 35.5945C119.227 36.3973 118.984 37.2775 118.984 38.2307H119.176ZM119.878 35.691L120.042 35.7884C120.504 35.0368 121.067 34.6923 121.731 34.6923V34.5038V34.3154C120.897 34.3154 120.225 34.7622 119.714 35.5934L119.878 35.691ZM121.731 34.5038V34.6923C122.095 34.6923 122.338 34.7404 122.484 34.8156C122.554 34.8519 122.597 34.8917 122.622 34.9309C122.647 34.9695 122.662 35.0182 122.662 35.0836H122.854H123.046C123.046 34.9558 123.014 34.8354 122.946 34.7289C122.877 34.6233 122.779 34.5423 122.662 34.482C122.434 34.364 122.116 34.3154 121.731 34.3154V34.5038ZM170.91 20.3139L170.784 20.456C170.785 20.4567 170.786 20.4573 170.786 20.4579L170.91 20.3139ZM170.713 26.5807L170.889 26.657L170.889 26.6562L170.713 26.5807ZM167.709 31.5499L167.863 31.6628L167.863 31.662L167.709 31.5499ZM158.557 39.9423L158.648 40.108L158.649 40.1078L158.557 39.9423ZM150.274 40.0253L150.135 40.1542C150.136 40.1551 150.137 40.156 150.138 40.157L150.274 40.0253ZM150.162 30.9977L149.985 30.9263L149.984 30.9278L150.162 30.9977ZM153.251 25.8905L153.397 26.0115L153.398 26.0106L153.251 25.8905ZM157.321 21.8876L157.202 21.7406L157.2 21.7419L157.321 21.8876ZM167.681 19.0163L167.548 19.152C167.55 19.1535 167.551 19.155 167.553 19.1565L167.681 19.0163ZM167.962 19.6237H167.77C167.77 19.6784 167.794 19.7302 167.836 19.766C167.878 19.8018 167.934 19.818 167.989 19.8103L167.962 19.6237ZM165.183 21.8323H165.374C165.374 21.7718 165.345 21.7151 165.295 21.6797C165.245 21.6443 165.181 21.6343 165.123 21.6533L165.183 21.8323ZM156.872 28.0714L157.023 28.1873L157.024 28.1862L156.872 28.0714ZM153.222 35.7185L153.031 35.7153C153.031 35.7162 153.031 35.7174 153.031 35.7185H153.222ZM162.291 31.5224L162.141 31.4046L162.14 31.4055L162.291 31.5224ZM165.632 26.7463L165.463 26.6566L165.463 26.6576L165.632 26.7463ZM169.197 19.5685V19.757C169.698 19.757 170.226 19.9779 170.784 20.456L170.91 20.3139L171.036 20.1718C170.434 19.656 169.82 19.3801 169.197 19.3801V19.5685ZM170.91 20.3139L170.786 20.4579C171.329 20.9079 171.617 21.6103 171.617 22.6052H171.808H172C172 21.5389 171.689 20.7136 171.033 20.1699L170.91 20.3139ZM171.808 22.6052H171.617C171.617 23.5786 171.264 24.8753 170.538 26.5051L170.713 26.5807L170.889 26.6562C171.623 25.01 172 23.6563 172 22.6052H171.808ZM170.713 26.5807L170.538 26.5043C169.815 28.1091 168.821 29.7538 167.555 31.4379L167.709 31.5499L167.863 31.662C169.143 29.9596 170.152 28.2913 170.889 26.657L170.713 26.5807ZM167.709 31.5499L167.556 31.4372C166.289 33.1043 164.892 34.6799 163.363 36.1642L163.498 36.2982L163.633 36.4324C165.174 34.935 166.584 33.3452 167.863 31.6628L167.709 31.5499ZM163.498 36.2982L163.363 36.1642C161.859 37.6248 160.226 38.8289 158.465 39.777L158.557 39.9423L158.649 40.1078C160.443 39.1419 162.105 37.9163 163.633 36.4324L163.498 36.2982ZM158.557 39.9423L158.465 39.7767C156.724 40.706 155.155 41.1619 153.756 41.1619V41.3503V41.5388C155.239 41.5388 156.871 41.0561 158.648 40.108L158.557 39.9423ZM153.756 41.3503V41.1619C152.358 41.1619 151.25 40.7352 150.412 39.8933L150.274 40.0253L150.138 40.157C151.059 41.0822 152.271 41.5388 153.756 41.5388V41.3503ZM150.274 40.0253L150.414 39.8962C149.595 39.0383 149.175 37.847 149.175 36.2982H148.983H148.791C148.791 37.915 149.232 39.2085 150.135 40.1542L150.274 40.0253ZM148.983 36.2982H149.175C149.175 34.727 149.561 32.9843 150.34 31.0678L150.162 30.9977L149.984 30.9278C149.192 32.8761 148.791 34.6671 148.791 36.2982H148.983ZM150.162 30.9977L150.34 31.0691C151.138 29.1532 152.157 27.4678 153.397 26.0115L153.251 25.8905L153.104 25.7695C151.836 27.258 150.797 28.9774 149.985 30.9263L150.162 30.9977ZM153.251 25.8905L153.398 26.0106C154.645 24.5287 155.993 23.203 157.443 22.0332L157.321 21.8876L157.2 21.7419C155.73 22.9277 154.364 24.2707 153.103 25.7703L153.251 25.8905ZM157.321 21.8876L157.442 22.0344C160.48 19.6332 163.114 18.4594 165.351 18.4594V18.271V18.0825C162.984 18.0825 160.265 19.3198 157.202 21.7406L157.321 21.8876ZM165.351 18.271V18.4594C166.352 18.4594 167.072 18.7009 167.548 19.152L167.681 19.0163L167.814 18.8806C167.242 18.338 166.409 18.0825 165.351 18.0825V18.271ZM167.681 19.0163L167.553 19.1565C167.733 19.316 167.77 19.4149 167.77 19.4581H167.962H168.154C168.154 19.2436 168.004 19.048 167.81 18.8763L167.681 19.0163ZM167.962 19.4581H167.77V19.6237H167.962H168.154V19.4581H167.962ZM167.962 19.6237L167.989 19.8103C168.237 19.7755 168.637 19.757 169.197 19.757V19.5685V19.3801C168.634 19.3801 168.211 19.3983 167.935 19.4372L167.962 19.6237ZM166.362 23.2402V23.0517H166.165V23.2402V23.4286H166.362V23.2402ZM166.165 23.2402V23.0517C165.891 23.0517 165.709 22.9577 165.586 22.7816C165.454 22.5928 165.374 22.286 165.374 21.8323H165.183H164.991C164.991 22.3173 165.075 22.7143 165.27 22.9948C165.475 23.2882 165.784 23.4286 166.165 23.4286V23.2402ZM165.183 21.8323L165.123 21.6533C163.732 22.103 162.281 22.8874 160.772 24.0004L160.887 24.1512L161.002 24.302C162.488 23.2066 163.901 22.445 165.242 22.0114L165.183 21.8323ZM160.887 24.1512L160.772 24.0004C159.26 25.1154 157.91 26.4342 156.72 27.9566L156.872 28.0714L157.024 28.1862C158.193 26.6902 159.519 25.3956 161.002 24.302L160.887 24.1512ZM156.872 28.0714L156.721 27.9555C154.319 30.9824 153.069 33.5725 153.031 35.7153L153.222 35.7185L153.414 35.7219C153.45 33.7053 154.634 31.1971 157.023 28.1873L156.872 28.0714ZM153.222 35.7185H153.031C153.031 36.2513 153.129 36.6849 153.356 36.9893C153.59 37.3048 153.941 37.4529 154.374 37.4529V37.2645V37.076C154.038 37.076 153.814 36.9667 153.665 36.7667C153.508 36.5558 153.414 36.2164 153.414 35.7185H153.222ZM154.374 37.2645V37.4529C154.796 37.4529 155.301 37.3174 155.883 37.0641C156.467 36.8099 157.142 36.4311 157.905 35.9305L157.799 35.7737L157.693 35.6169C156.94 36.1103 156.285 36.4769 155.728 36.7194C155.168 36.9631 154.719 37.076 154.374 37.076V37.2645ZM157.799 35.7737L157.905 35.9305C159.442 34.923 160.954 33.4907 162.441 31.6392L162.291 31.5224L162.14 31.4055C160.671 33.2349 159.187 34.6369 157.693 35.6169L157.799 35.7737ZM162.291 31.5224L162.441 31.64C163.942 29.7949 165.063 28.1928 165.801 26.8351L165.632 26.7463L165.463 26.6576C164.74 27.9868 163.635 29.5688 162.141 31.4046L162.291 31.5224ZM165.632 26.7463L165.8 26.8358C166.177 26.1517 166.461 25.5741 166.652 25.1046C166.841 24.641 166.947 24.263 166.947 23.9855H166.755H166.563C166.563 24.1868 166.482 24.5081 166.296 24.9646C166.113 25.4154 165.836 25.9789 165.463 26.6566L165.632 26.7463ZM166.755 23.9855H166.947C166.947 23.727 166.913 23.5042 166.827 23.3399C166.782 23.2549 166.72 23.1806 166.637 23.1282C166.554 23.0754 166.459 23.0517 166.362 23.0517V23.2402V23.4286C166.395 23.4286 166.416 23.4362 166.43 23.4454C166.445 23.455 166.466 23.474 166.486 23.5132C166.531 23.5973 166.563 23.7473 166.563 23.9855H166.755Z" fill="#036C3E"/>
</svg>
